<?xml version="1.0" encoding="UTF-8" ?>
<!DOCTYPE svg PUBLIC "-//W3C//DTD SVG 1.1//EN" "http://www.w3.org/Graphics/SVG/1.1/DTD/svg11.dtd">
<svg width="280pt" height="280pt" viewBox="0 0 280 280" version="1.1" xmlns="http://www.w3.org/2000/svg">
<g id="#00599cfe">
<path fill="#00599c" opacity="1.00" d=" M 125.46 11.62 C 148.40 9.25 172.22 12.15 193.22 21.97 C 221.47 34.70 245.14 57.76 257.90 86.07 C 264.40 99.66 267.84 114.56 269.15 129.51 C 270.27 148.77 268.50 168.49 261.53 186.61 C 255.18 202.86 245.96 218.18 233.40 230.39 C 222.55 242.06 209.10 251.14 194.64 257.74 C 173.92 267.53 150.53 271.05 127.78 269.15 C 102.20 266.86 77.46 256.53 57.63 240.27 C 47.27 231.35 37.93 221.17 30.54 209.64 C 17.23 188.33 10.10 163.15 10.66 138.01 C 11.05 112.85 19.01 87.90 33.16 67.10 C 53.99 36.46 88.54 15.44 125.46 11.62 M 43.50 83.47 C 43.56 121.14 43.52 158.81 43.52 196.48 C 50.57 196.48 57.63 196.45 64.68 196.50 C 64.79 185.52 64.81 174.53 64.67 163.55 C 75.62 163.18 87.13 165.20 97.51 160.71 C 107.18 156.87 113.77 147.51 115.90 137.53 C 118.11 130.24 117.56 122.55 117.35 115.04 C 116.18 107.56 114.11 99.84 109.05 93.99 C 102.72 86.52 92.56 83.28 83.00 83.43 C 69.84 83.45 56.67 83.39 43.50 83.47 M 130.51 83.49 C 130.55 121.15 130.52 158.82 130.53 196.47 C 137.84 196.48 145.16 196.47 152.47 196.47 C 152.57 167.27 152.23 138.05 152.64 108.85 C 153.59 111.07 154.52 113.30 154.98 115.69 C 160.54 139.66 166.61 163.52 172.15 187.50 C 172.62 188.82 172.57 190.57 173.89 191.42 C 180.68 191.65 187.48 191.37 194.27 191.50 C 194.68 189.47 195.47 187.55 195.93 185.54 C 201.75 160.76 207.93 136.07 213.69 111.29 C 213.93 110.31 214.88 109.76 215.33 108.89 C 215.62 138.09 215.31 167.30 215.48 196.49 C 222.52 196.46 229.57 196.46 236.62 196.50 C 236.70 158.81 236.67 121.12 236.63 83.43 C 224.67 83.51 212.69 83.27 200.74 83.57 C 195.78 110.53 188.79 137.13 183.83 164.11 C 183.54 161.65 183.30 159.18 182.60 156.79 C 179.19 142.06 176.09 127.27 172.91 112.49 C 170.47 102.84 169.05 92.95 166.37 83.36 C 154.42 83.56 142.46 83.32 130.51 83.49 Z" />
<path fill="#00599c" opacity="1.00" d=" M 64.66 103.62 C 70.46 103.78 76.26 103.59 82.06 103.67 C 86.19 103.70 90.53 105.48 92.78 109.09 C 94.59 112.04 95.51 115.51 95.52 118.96 C 95.51 124.33 96.05 129.96 93.78 135.00 C 91.83 139.69 87.14 143.19 82.01 143.32 C 76.23 143.49 70.44 143.23 64.67 143.41 C 64.80 130.15 64.81 116.88 64.66 103.62 Z" />
</g>
<g id="#fefefefe">
<path fill="#fefefe" opacity="1.00" d=" M 43.50 83.47 C 56.67 83.39 69.84 83.45 83.00 83.43 C 92.56 83.28 102.72 86.52 109.05 93.99 C 114.11 99.84 116.18 107.56 117.35 115.04 C 117.56 122.55 118.11 130.24 115.90 137.53 C 113.77 147.51 107.18 156.87 97.51 160.71 C 87.13 165.20 75.62 163.18 64.67 163.55 C 64.81 174.53 64.79 185.52 64.68 196.50 C 57.63 196.45 50.57 196.48 43.52 196.48 C 43.52 158.81 43.56 121.14 43.50 83.47 M 64.66 103.62 C 64.81 116.88 64.80 130.15 64.67 143.41 C 70.44 143.23 76.23 143.49 82.01 143.32 C 87.14 143.19 91.83 139.69 93.78 135.00 C 96.05 129.96 95.51 124.33 95.52 118.96 C 95.51 115.51 94.59 112.04 92.78 109.09 C 90.53 105.48 86.19 103.70 82.06 103.67 C 76.26 103.59 70.46 103.78 64.66 103.62 Z" />
<path fill="#fefefe" opacity="1.00" d=" M 130.51 83.49 C 142.46 83.32 154.42 83.56 166.37 83.36 C 169.05 92.95 170.47 102.84 172.91 112.49 C 176.09 127.27 179.19 142.06 182.60 156.79 C 183.30 159.18 183.54 161.65 183.83 164.11 C 188.79 137.13 195.78 110.53 200.74 83.57 C 212.69 83.27 224.67 83.51 236.63 83.43 C 236.67 121.12 236.70 158.81 236.62 196.50 C 229.57 196.46 222.52 196.46 215.48 196.49 C 215.31 167.30 215.62 138.09 215.33 108.89 C 214.88 109.76 213.93 110.31 213.69 111.29 C 207.93 136.07 201.75 160.76 195.93 185.54 C 195.47 187.55 194.68 189.47 194.27 191.50 C 187.48 191.37 180.68 191.65 173.89 191.42 C 172.57 190.57 172.62 188.82 172.15 187.50 C 166.61 163.52 160.54 139.66 154.98 115.69 C 154.52 113.30 153.59 111.07 152.64 108.85 C 152.23 138.05 152.57 167.27 152.47 196.47 C 145.16 196.47 137.84 196.48 130.53 196.47 C 130.52 158.82 130.55 121.15 130.51 83.49 Z" />
</g>
</svg>
